<?xml version="1.0" encoding="UTF-8"?>
<svg width="288" height="288" viewBox="0 0 96 96" xmlns="http://www.w3.org/2000/svg">
  <defs>
    <linearGradient id="teal" x1="0%" y1="0%" x2="100%" y2="100%">
      <stop offset="0%" stop-color="#0d9488"/>
      <stop offset="100%" stop-color="#0f766e"/>
    </linearGradient>
    <linearGradient id="coral" x1="0%" y1="0%" x2="100%" y2="100%">
      <stop offset="0%" stop-color="#f97316"/>
      <stop offset="100%" stop-color="#ea580c"/>
    </linearGradient>
  </defs>
  <line x1="48" y1="48" x2="48" y2="14" stroke="url(#teal)" stroke-width="5" stroke-linecap="round"/>
  <line x1="48" y1="48" x2="72" y2="24" stroke="url(#teal)" stroke-width="5" stroke-linecap="round"/>
  <line x1="48" y1="48" x2="82" y2="48" stroke="url(#teal)" stroke-width="5" stroke-linecap="round"/>
  <line x1="48" y1="48" x2="72" y2="72" stroke="url(#teal)" stroke-width="5" stroke-linecap="round"/>
  <line x1="48" y1="48" x2="48" y2="82" stroke="url(#teal)" stroke-width="5" stroke-linecap="round"/>
  <line x1="48" y1="48" x2="24" y2="72" stroke="url(#teal)" stroke-width="5" stroke-linecap="round"/>
  <line x1="48" y1="48" x2="14" y2="48" stroke="url(#teal)" stroke-width="5" stroke-linecap="round"/>
  <line x1="48" y1="48" x2="24" y2="24" stroke="url(#teal)" stroke-width="5" stroke-linecap="round"/>
  <circle cx="48" cy="14" r="8" fill="none" stroke="url(#coral)" stroke-width="4"/>
  <circle cx="72" cy="24" r="8" fill="none" stroke="url(#coral)" stroke-width="4"/>
  <circle cx="82" cy="48" r="8" fill="none" stroke="url(#coral)" stroke-width="4"/>
  <circle cx="72" cy="72" r="8" fill="none" stroke="url(#coral)" stroke-width="4"/>
  <circle cx="48" cy="82" r="8" fill="none" stroke="url(#coral)" stroke-width="4"/>
  <circle cx="24" cy="72" r="8" fill="none" stroke="url(#coral)" stroke-width="4"/>
  <circle cx="14" cy="48" r="8" fill="none" stroke="url(#coral)" stroke-width="4"/>
  <circle cx="24" cy="24" r="8" fill="none" stroke="url(#coral)" stroke-width="4"/>
  <circle cx="48" cy="48" r="14" fill="none" stroke="url(#teal)" stroke-width="5"/>
  <line x1="41" y1="41" x2="55" y2="55" stroke="url(#teal)" stroke-width="4" stroke-linecap="round"/>
  <line x1="55" y1="41" x2="41" y2="55" stroke="url(#teal)" stroke-width="4" stroke-linecap="round"/>
</svg>
