<?xml version="1.0" encoding="UTF-8"?>
<svg width="1830" height="295" viewBox="0 0 610 97" xmlns="http://www.w3.org/2000/svg">
  <title>TelemetryFlow Collector OCB Logo - Dark Theme</title>
  <defs>
    <linearGradient id="teal" x1="0%" y1="0%" x2="100%" y2="100%">
      <stop offset="0%" stop-color="#14b8a6"/>
      <stop offset="100%" stop-color="#0d9488"/>
    </linearGradient>
    <linearGradient id="coral" x1="0%" y1="0%" x2="100%" y2="100%">
      <stop offset="0%" stop-color="#fb923c"/>
      <stop offset="100%" stop-color="#f97316"/>
    </linearGradient>
    <linearGradient id="purple" x1="0%" y1="0%" x2="100%" y2="100%">
      <stop offset="0%" stop-color="#a78bfa"/>
      <stop offset="100%" stop-color="#8b5cf6"/>
    </linearGradient>
  </defs>
  <g transform="translate(11,5)">
    <g id="icon">
      <line x1="44" y1="44" x2="44" y2="10" stroke="url(#teal)" stroke-width="5" stroke-linecap="round"/>
      <line x1="44" y1="44" x2="68" y2="20" stroke="url(#teal)" stroke-width="5" stroke-linecap="round"/>
      <line x1="44" y1="44" x2="78" y2="44" stroke="url(#teal)" stroke-width="5" stroke-linecap="round"/>
      <line x1="44" y1="44" x2="68" y2="68" stroke="url(#teal)" stroke-width="5" stroke-linecap="round"/>
      <line x1="44" y1="44" x2="44" y2="78" stroke="url(#teal)" stroke-width="5" stroke-linecap="round"/>
      <line x1="44" y1="44" x2="20" y2="68" stroke="url(#teal)" stroke-width="5" stroke-linecap="round"/>
      <line x1="44" y1="44" x2="10" y2="44" stroke="url(#teal)" stroke-width="5" stroke-linecap="round"/>
      <line x1="44" y1="44" x2="20" y2="20" stroke="url(#teal)" stroke-width="5" stroke-linecap="round"/>
      <circle cx="44" cy="10" r="8" fill="none" stroke="url(#coral)" stroke-width="4"/>
      <circle cx="68" cy="20" r="8" fill="none" stroke="url(#coral)" stroke-width="4"/>
      <circle cx="78" cy="44" r="8" fill="none" stroke="url(#coral)" stroke-width="4"/>
      <circle cx="68" cy="68" r="8" fill="none" stroke="url(#coral)" stroke-width="4"/>
      <circle cx="44" cy="78" r="8" fill="none" stroke="url(#coral)" stroke-width="4"/>
      <circle cx="20" cy="68" r="8" fill="none" stroke="url(#coral)" stroke-width="4"/>
      <circle cx="10" cy="44" r="8" fill="none" stroke="url(#coral)" stroke-width="4"/>
      <circle cx="20" cy="20" r="8" fill="none" stroke="url(#coral)" stroke-width="4"/>
      <circle cx="44" cy="44" r="14" fill="none" stroke="url(#teal)" stroke-width="5"/>
      <line x1="37" y1="37" x2="51" y2="51" stroke="url(#teal)" stroke-width="4" stroke-linecap="round"/>
      <line x1="51" y1="37" x2="37" y2="51" stroke="url(#teal)" stroke-width="4" stroke-linecap="round"/>
    </g>
    <text x="100" y="48" font-family="system-ui, -apple-system, BlinkMacSystemFont, 'Segoe UI', sans-serif" font-size="36" font-weight="800" fill="#f8fafc">TelemetryFlow</text>
    <text x="355" y="48" font-family="system-ui, -apple-system, BlinkMacSystemFont, 'Segoe UI', sans-serif" font-size="36" font-weight="800" fill="#f97316">[Collector]</text>
    <text x="545" y="48" font-family="system-ui, -apple-system, BlinkMacSystemFont, 'Segoe UI', sans-serif" font-size="20" font-weight="600" fill="#a78bfa">OCB</text>
    <text x="100" y="72" font-family="system-ui, -apple-system, BlinkMacSystemFont, 'Segoe UI', sans-serif" font-size="12" font-weight="600" fill="#94a3b8" letter-spacing="4">OBSERVABILITY</text>
  </g>
</svg>
